<?xml version="1.0" encoding="UTF-8" standalone="no"?>
<svg
   xmlns:dc="http://purl.org/dc/elements/1.1/"
   xmlns:cc="http://creativecommons.org/ns#"
   xmlns:rdf="http://www.w3.org/1999/02/22-rdf-syntax-ns#"
   xmlns:svg="http://www.w3.org/2000/svg"
   xmlns="http://www.w3.org/2000/svg"
   viewBox="0 0 433.76001 466.66666"
   height="466.66666"
   width="433.76001"
   xml:space="preserve"
   id="svg2"
   version="1.1"><metadata
     id="metadata8"><rdf:RDF><cc:Work
         rdf:about=""><dc:format>image/svg+xml</dc:format><dc:type
           rdf:resource="http://purl.org/dc/dcmitype/StillImage" /></cc:Work></rdf:RDF></metadata><defs
     id="defs6" /><g
     transform="matrix(1.3333333,0,0,-1.3333333,0,466.66667)"
     id="g10"><g
       transform="scale(0.1)"
       id="g12"><path
         id="path14"
         style="fill:#ffffff;fill-opacity:1;fill-rule:nonzero;stroke:none"
         d="m 566.688,3244.48 c 5.968,14.28 6.14,33.52 2.71,45.25 -3.105,12.04 -6.804,19.04 -8.296,22.85 -0.809,1.9 -1.289,3.1 -1.473,3.39 l -0.113,0.1 c -0.039,0 -0.082,-0.01 -0.121,-0.01 0.703,1.19 1.683,2.62 2.929,4.15 4.594,5.67 11.801,12.15 19.477,18.14 66.222,48.18 135.793,79.86 178.59,104.99 44.265,24.63 68.074,40.93 65.386,48.07 -2.629,6.97 -31.422,4.17 -81.164,-8.58 -49.898,-14.42 -119.984,-31.77 -206.66,-80.86 -10.922,-6.83 -22.226,-14.47 -34.086,-25.86 -10.914,-10.95 -26.949,-28.73 -28.926,-58.22 -0.367,-18.91 4.469,-32.94 7.254,-40.59 -0.082,-0.07 -0.144,-0.14 -0.23,-0.21 -4.738,-4.08 -14.094,-10.17 -24.301,-15.59 l -3.93,-2.07 -0.984,-0.52 -0.492,-0.26 c 1.222,0.83 -11.496,-7.65 -6.238,-4.16 l -0.266,-0.19 -2.121,-1.59 -8.52,-6.4 -17.222,-12.96 c -23.028,-17.57 -46.477,-36.1 -69.879,-56.03 C 254.711,3097.98 156.34,3000.23 82.9063,2871.3 46.332,2807.13 19.9375,2737.25 7.5,2666.32 c -12.11328,-70.99 -9.24219,-142.5 6.3789,-206.59 15.3672,-64.25 41.6055,-121.08 71.6094,-169.26 4.3125,-6.72 6.1875,-10.51 12.4258,-19.45 l 11.0659,-15.28 c 7.278,-10.26 14.399,-20.25 21.426,-30.37 13.989,-20.02 27.723,-39.76 41.332,-58.41 53.731,-75.87 112.7,-130.4 158.539,-156.88 45.668,-27.33 74.664,-33.62 78.067,-27.59 8.726,15.26 -88.817,71.4 -171.864,226.64 -11.05,19.26 -22.449,39.69 -34.859,61.39 -6.117,10.77 -12.695,21.92 -19.379,33.18 l -10.418,17.1 c -1.109,1.86 -5.16,9.89 -7.644,14.59 -23.028,43.86 -41.856,92.88 -51.883,145.59 -21.4376,105.43 1.469,225.43 65.844,336.73 63.406,111.84 151.668,205.21 236.554,284.18 21.243,19.86 42.625,38.66 63.614,56.75 l 15.703,13.4 7.761,6.64 1.067,0.91 2.289,1.41 c 13.379,8.59 26.785,17.54 41.031,32.15 6.992,7.44 14.852,17.12 20.528,31.33 z m -82.774,26.27 c -0.195,-0.41 -0.437,1.16 -0.449,3.01 0.594,-1.73 0.848,-2.78 0.449,-3.01 z m 302.684,120.09 c -3.035,-1.35 -1.328,-12.64 13.976,-20.64 14.84,-7.91 37.121,-10.2 63.321,-9.13 52.871,1.89 124.035,17.38 210.265,30.74 85.39,12.62 189.45,25.32 290.62,-1.07 0.07,-0.01 0.13,-0.04 0.2,-0.05 -3.95,-8.73 -9.16,-18.92 -14.78,-30.26 -3.66,-7.42 -7.56,-15.55 -11.45,-25.13 l -0.37,-0.87 -0.18,-0.44 c -4.78,-59.84 -1.18,-17.17 -2.18,-30.79 l 1.11,-4.07 2.65,-8.06 c 2.04,-5.93 3.97,-8.63 6.15,-12.75 4.56,-8.36 8.46,-12.4 12.96,-18.23 33.18,-35.16 63.35,-50.41 95.37,-68.22 31.78,-16.64 64.3,-30.82 97.88,-43.49 68.37,-24.25 132.08,-45.75 212.16,-47.56 10.71,0.36 21.29,0.68 34.93,3.91 14.86,3.55 28.81,9.16 42.71,20.31 28.39,22.92 36.52,55.91 38.3,76.85 0.35,3.76 0.55,7.34 0.69,10.86 5.26,-2.55 10.53,-5.04 15.82,-7.38 27.63,-12.67 55.83,-22.01 83.28,-29.46 55.1,-14.82 108.15,-19.21 155.28,-18.42 94.65,1.91 166.16,22.69 211.99,28.72 23.1,3.32 38.16,2.56 47.8,-0.82 9.81,-3.59 15.13,-8.8 18.83,-7.34 3.13,0.82 5.41,10.7 -4.9,24.4 -10.73,13.94 -34.89,23.46 -61.59,26.29 -53.98,6.54 -125.45,-2.01 -209.39,5.97 -41.82,3.97 -86.55,12 -131.78,27.93 -22.57,8.03 -45.5,17.31 -67.97,29.37 -11.29,5.85 -22.54,12.26 -33.7,19.16 l -16.76,10.61 c -8.82,4.88 -15.18,11.26 -37.48,16.56 -4.7,1.14 -14.9,1.95 -24.66,0 -12.13,-2.36 -24.37,-9.47 -32.76,-19.2 -15.07,-19.68 -13.62,-29.22 -15.64,-37.37 -1.62,-14.97 -0.79,-23.15 -0.62,-31.45 0.68,-15.68 1.15,-28.53 -0.18,-37.02 -0.3,-2.07 -0.64,-3.61 -0.95,-4.76 -2.16,-0.46 -7.24,-0.69 -12.16,-0.67 -48.59,1.61 -113.73,20.79 -172.7,42.76 -30.05,11.31 -59.3,23.94 -86.35,37.73 -20.41,10.17 -41.66,23.03 -55.29,33.74 5.43,11.69 11.52,24.58 17.12,40.11 3.31,9.41 6.77,19.99 8.32,35.06 1.51,13.37 0.98,38.9 -17.88,60.37 -17.77,19.67 -39.94,23.62 -43.93,24.9 -8.15,2.03 -16.18,4.62 -24.28,6.08 -130.52,26.59 -242.59,1.2 -330.22,-21.22 -88.117,-23.96 -155.371,-50.51 -201.11,-64.35 -47.382,-16.41 -63.754,-9.91 -70.472,-12.21 z m 988.262,-184.35 c -0.43,-1.02 -0.59,-0.84 0,0 z m -372.84,203.73 c 0.94,0.34 0.82,0.21 -0.16,-0.14 0.05,0.04 0.1,0.1 0.16,0.14 z M 3196.93,2309.05 c -36.08,4.95 -88.47,4.77 -146.98,12.15 -58.53,7.42 -121.59,27.94 -184.04,72.34 -63.06,44.94 -127.19,104.33 -181.73,176.78 -55.18,72.45 -99.1,151.04 -140.58,223.41 -10.98,19.16 -19.04,33.4 -31.86,55.51 -15.29,23.03 -30.85,37.59 -45.35,51.4 -28.93,26.72 -55.71,47.79 -73.61,66.93 -8.9,9.14 -14.4,18.25 -15.62,20.23 -0.21,1.93 -6.51,-3.37 4.83,13.06 14.7,22.84 24.99,44.7 30.73,63.68 11.39,38.87 3.62,61.8 -3.31,61.87 v 0 c -7.98,0.58 -15.16,-17.64 -34.88,-43.16 -10.03,-12.83 -23.23,-27.75 -40.19,-44.15 -4.5,-2.2 -30.5,-30.47 -26.31,-58.48 2.17,-26.75 13.4,-44.3 23.53,-60.19 21.2,-31.04 46.76,-56.25 69.87,-82.95 11.33,-13 22.37,-26.85 27.95,-37.75 5.76,-12.99 16.51,-35.12 25.18,-53.02 37.09,-75.68 80.47,-160.7 142.71,-242.62 62.19,-82.36 137.28,-147.98 214.25,-195.29 78.05,-48.8 166.53,-67.6 234.53,-64.77 68.46,2.3 118.55,14.64 153.31,22.56 34.6,8.58 53.88,15.67 53.86,23.29 -0.01,7.47 -20.02,14.75 -56.29,19.17 z M 2415.33,787.938 v 0 c -3.74,-1.415 -1.78,-15.387 2.58,-40.77 3.71,-24.98 12.44,-63.262 7.12,-106.98 -2.8,-21.614 -11.1,-42.754 -27.87,-56.504 -17.39,-14.653 -41.48,-20.325 -78.72,-27.004 -5.66,-1.68 -10.43,-1.883 -21.24,-7.903 -3.93,-2.847 -6.7,-4.566 -10.7,-9.629 -4.01,-5.156 -6.42,-12.468 -6.73,-13.457 l -2.15,-5.964 c -2.94,-8.055 -5.76,-16.282 -8.85,-24.539 -6.83,-16.309 -13.97,-33.02 -22.66,-49.614 -17.15,-33.25 -38.59,-66.668 -64.57,-99.121 -51.77,-64.976 -122.25,-125.933 -207.49,-174.402 -42.64,-23.848 -89.02,-44.981 -137.52,-59.113 -24.07,-7.02 -48.99,-12.262 -71.85,-13.6138 -23.7,-2.3828 -42.41,4.7188 -37.17,4.3208 -3.15,2.656 -10.24,30.742 -11.27,57.312 -2.8,28.066 -0.79,57.41 -9.68,97.773 -15.03,67.247 -47.88,131.7 -85.74,186.551 -39.76,56.614 -74.46,100.832 -100.92,156.328 -13.58,27.911 -25.02,54.731 -37.29,87.969 -14.76,35.317 -32.81,66.047 -49.03,94.942 -16.2,28.859 -30.94,55.949 -39.66,81.425 -7.5,21.821 -9.82,48.645 -7.97,76.543 3.64,56.504 21.57,117.232 36.97,180.092 7.78,31.54 15.12,64.14 19.64,98.44 2.25,17.16 3.67,34.84 3.71,53.03 0.02,16.05 0.03,29.94 0.2,45.75 0.1,30.7 0.71,63.96 -5.43,99.6 -5.65,35.37 -19.91,72.25 -40.24,101.52 -38.33,56.91 -92.9,96.15 -127.35,127.74 -16.44,15.99 -24.47,28.24 -29.17,46.27 -4.63,18.27 -5.16,39.78 -3.3,64.38 2.88,53.96 5.07,109.11 -14.3,166.23 -9.73,28.25 -27.27,55.43 -48.85,75.3 -21.63,19.92 -45.33,33.12 -67.94,43.17 -45.49,19.6 -88.07,29.12 -127.972,37.75 -38.691,10.23 -82.777,14.16 -119.707,11.73 -75.828,-4.94 -134.684,-26.08 -181.684,-40.82 -93.222,-32.01 -145.433,-43.68 -144.972,-51.31 0.293,-7.52 57.711,-9.62 155.5,10.1 48.617,8.65 107.211,22.35 172.222,20.94 33.196,-1.02 64.575,-5.68 102.25,-18.18 37.203,-10.6 76.543,-22.53 111.373,-40.08 35.53,-17.95 59.91,-40.55 69.8,-75.33 10.7,-35.29 9.01,-82.91 3.99,-131.93 -2.9,-26.97 -4.76,-59.06 2.6,-93.29 6.54,-34.82 29.05,-70.43 52.23,-92.89 23.08,-23.21 44.27,-39.82 62.78,-58.11 17.97,-17.27 36.47,-38.68 48.38,-57 25.03,-37.25 27.7,-82.21 25.45,-144.11 -0.43,-14.75 -0.73,-31.6 -0.98,-46.44 -0.23,-12.7 -1.44,-26.02 -3.46,-39.79 -4.02,-27.52 -10.76,-56.45 -18.58,-86.52 -15.12,-60.27 -35.89,-124.2 -41.63,-199.082 -2.5,-37.429 -0.66,-77.949 13.3,-119.367 12.97,-37.593 30.92,-69.441 47.57,-99.343 16.83,-29.793 32.58,-57.161 43.52,-83.333 10.74,-29.199 25.23,-63.347 40.65,-94.324 30.33,-63.445 76.33,-121.562 109.97,-168.476 34.65,-49.344 59.64,-97.989 72.53,-150.188 5.45,-19.285 5.75,-51.172 8.96,-82.508 4.9,-32.05 3.25,-66.2574 35,-111.484 19.54,-24.4922 46.49,-34.28516 67.16,-37.78125 20.72,-3.441406 39.07,-3.417969 55.86,-1.73047 33.93,3.06641 64.05,10.76172 92.8,19.99222 57.32,18.6914 108.45,44.3633 155.4,72.9648 93.39,57.9027 168.82,129.4847 223.04,205.9027 27.18,38.113 49.05,77.324 65.79,116.074 8.49,19.336 15.23,38.719 21.46,57.566 2.46,8.391 4.67,16.707 6.9,24.903 30.29,8.144 70.31,20.007 95.7,47.468 27.39,28.313 34.55,64.336 34.38,91.371 -1.08,55.528 -18.02,92.032 -28.56,116.454 -11.46,24.179 -20.28,35.402 -23.58,34.129 z m -84.8,-291.661 c -1.78,-0.828 -1.23,-0.515 0.06,0.039 -0.02,-0.007 -0.04,-0.015 -0.06,-0.039 z m 9.63,12.453 0.02,0.04 c 0.41,1.628 0.41,1.242 -0.02,-0.04 z m 880.95,1661.94 c -15.68,6.26 -54.17,-80.22 -156.75,-183.17 -51.29,-51.64 -117.86,-105.86 -200.22,-159.02 -41.68,-27.68 -87.15,-57.69 -132.08,-96.54 -44.27,-38.98 -89.06,-89.52 -114.55,-153.99 -13.17,-32.27 -20.96,-63.85 -23.82,-98.83 -2.63,-32.57 -1.22,-64.54 3.04,-94.22 8.24,-59.77 24.14,-111.55 35.73,-158.45 11.82,-46.8 19.17,-88.92 18.28,-127.3 -1.7,-34.64 -11.91,-73.49 -24.94,-103.459 -27,-62.136 -67.71,-104.761 -96.51,-133.496 -29.41,-28.535 -47.51,-44.824 -43.78,-51.812 3.27,-6.313 28.2,-2.922 68.45,17.176 39.25,20.421 96.13,59.382 140.4,132.48 21.62,37.332 39.02,78.591 46.77,132.711 5.73,50.91 -0.37,104.19 -10.32,155.25 -20.28,101.02 -49.66,202.83 -12.02,288.91 34.76,88.18 123.39,149.47 203.3,209.24 83.21,60.37 152.57,127.42 200.59,190.65 97.6,128.25 111.08,230.77 98.43,233.87 z M 3161.1,1004.45 c -15.68,0.84 -29.34,-46.481 -51.28,-117.516 -23.06,-71.043 -52.98,-164.676 -120.11,-252.293 -13.96,-20.793 -29.67,-39.321 -47.04,-56.789 -8.59,-8.782 -17.67,-17.207 -26.97,-25.481 l -3.44,-3.101 -1.72,-1.543 -0.85,-0.774 -0.13,-0.105 -2.1,-1.426 c -3.9,-2.492 -7.41,-4.531 -10.37,-6.125 -6.04,-2.996 -8.17,-3.469 -9.13,-4.094 -0.39,-0.496 -0.66,0.063 -1.12,-0.281 l -0.37,-0.156 c 1.01,-0.536 -1.35,0.547 0.05,-0.176 -2.19,0.871 -4.48,1.797 -6.43,3.555 -9.62,6.269 -18.44,18.3 -24.37,31.375 -5.66,11.64 -10.63,30.238 -11.08,36.183 -0.64,12.735 0.12,25.188 0.54,35.996 1.01,21.739 -1.09,36.067 -8.3,38.504 -7.09,2.395 -17.92,-5.476 -31.76,-24.234 -6.85,-9.465 -14.49,-22.18 -20.64,-39.614 -7.28,-24.167 -6.5,-41.179 -3.43,-66.726 3.97,-23.887 13.28,-51.848 36.56,-77.102 5.5,-6.492 12.38,-12.078 19.92,-17.351 l 5.62,-3.992 1.42,-0.989 c 6.9,-3.465 3.01,-1.425 5.04,-2.414 l 3.85,-1.59 c 5.25,-1.914 10.42,-4.328 16.09,-5.293 22.83,-5.546 46.25,-1.75 63.87,4.5 8.88,3.165 16.96,6.79 24.49,10.625 l 10.65,5.832 c 2.24,1.583 -4.77,-3.41 5.07,3.567 l 0.12,0.105 0.27,0.196 0.53,0.398 1.06,0.805 2.12,1.609 4.26,3.235 c 11.38,8.601 22.98,17.996 34.39,28.457 22.92,20.652 45.37,45.535 64.17,73.679 76.31,100.215 101.87,220.957 105.43,299.922 3.47,81.27 -10.52,129.982 -24.88,130.622 z M 2864.26,753.254 c 15.03,-4.875 34.47,27.691 45.55,72.793 6.21,21.785 13.12,44.258 23.97,57.808 10.22,13.34 27.41,26.262 55.95,41.45 27.48,14.937 62.13,31.414 91.23,56.16 29.76,23.585 52.4,61.025 56.49,92.515 6.34,63.04 -20.44,89.03 -33.11,86.68 -15.56,-1.7 -21.61,-34.92 -40.42,-62.95 -16.72,-26.15 -54.51,-41.14 -126.4,-76.41 -34.09,-17.84 -73.42,-47.765 -92.38,-89.691 -18.46,-41.472 -15.32,-76.492 -12.46,-100.781 8.36,-48.418 17.39,-72.879 31.58,-77.574" /></g></g></svg>